<?xml version="1.0" standalone="no"?>
<!DOCTYPE svg PUBLIC "-//W3C//DTD SVG 20010904//EN"
 "http://www.w3.org/TR/2001/REC-SVG-20010904/DTD/svg10.dtd">
<svg version="1.0" xmlns="http://www.w3.org/2000/svg"
 width="367.000000pt" height="419.000000pt" viewBox="0 0 367.000000 419.000000"
 preserveAspectRatio="xMidYMid meet">

<g transform="translate(0.000000,419.000000) scale(0.100000,-0.100000)"
fill="#000000" stroke="none">
<path d="M2450 3873 c-48 -25 -78 -82 -62 -117 6 -14 23 -28 39 -32 22 -6 31
-2 55 26 l27 33 22 -27 c41 -52 123 -71 167 -40 29 20 62 85 62 123 0 63 -79
67 -104 6 -8 -19 -18 -35 -22 -35 -4 0 -21 16 -38 36 -39 44 -93 54 -146 27z
m133 -58 c40 -49 70 -47 97 6 22 43 43 47 48 11 5 -31 -35 -91 -63 -98 -36 -9
-89 13 -114 46 -29 40 -65 40 -86 0 -9 -16 -22 -30 -31 -30 -24 0 -28 30 -7
58 46 62 108 64 156 7z"/>
<path d="M779 3711 c-24 -19 -24 -21 -29 -273 -4 -161 -2 -262 5 -278 7 -18
28 -30 75 -47 111 -40 236 -20 308 50 48 46 74 102 80 173 7 95 -17 155 -92
229 -51 50 -81 69 -179 113 -64 28 -123 52 -131 52 -8 0 -24 -9 -37 -19z m177
-72 c153 -73 220 -146 231 -253 10 -102 -41 -201 -125 -239 -66 -29 -170 -29
-234 0 l-48 22 0 247 c0 325 -10 312 176 223z"/>
<path d="M848 3417 c-4 -234 -5 -231 109 -225 64 3 76 7 103 33 45 43 60 77
60 135 0 61 -17 96 -65 139 -33 29 -123 79 -180 101 l-24 9 -3 -192z m94 117
c109 -55 148 -102 148 -176 0 -51 -30 -105 -70 -125 -14 -7 -50 -12 -80 -11
l-55 3 -3 168 c-1 92 0 167 3 167 3 0 29 -12 57 -26z"/>
<path d="M1459 3695 c-71 -23 -139 -90 -179 -177 -30 -63 -34 -83 -35 -153 0
-70 3 -86 28 -128 66 -112 235 -159 354 -98 53 26 110 91 141 160 30 66 41
190 23 259 -15 55 -60 106 -113 127 -59 23 -163 28 -219 10z m215 -44 c28 -12
51 -32 67 -57 21 -34 24 -51 24 -134 0 -81 -4 -103 -26 -150 -66 -140 -171
-194 -305 -155 -74 21 -136 80 -154 145 -37 132 62 325 187 364 59 19 148 14
207 -13z"/>
<path d="M1475 3598 c-99 -54 -162 -213 -120 -302 34 -72 151 -110 223 -72 75
39 122 127 122 231 0 84 -14 114 -60 137 -40 20 -134 24 -165 6z m148 -29 c56
-25 65 -142 19 -230 -56 -108 -156 -132 -239 -56 -62 56 -20 218 71 277 35 22
110 27 149 9z"/>
<path d="M2105 3700 c-33 -4 -75 -14 -92 -24 -114 -59 -227 -263 -209 -376 20
-124 113 -200 228 -187 61 8 168 64 188 100 19 35 4 78 -32 91 -23 8 -36 4
-80 -23 -68 -43 -115 -50 -148 -23 -21 17 -25 28 -24 75 0 44 7 66 35 112 37
62 100 125 125 125 9 0 29 -13 44 -30 33 -35 62 -38 90 -10 34 34 25 147 -14
172 -12 9 -25 8 -111 -2z m105 -39 c5 -11 10 -37 10 -58 0 -65 -38 -85 -65
-33 -31 60 -108 33 -180 -62 -83 -111 -96 -216 -34 -272 28 -24 38 -28 78 -24
28 3 66 17 99 37 43 27 55 31 67 21 23 -19 18 -36 -21 -68 -38 -31 -119 -62
-163 -62 -40 1 -106 34 -129 67 -70 99 -39 246 83 381 53 58 116 88 170 79 19
-3 37 -1 40 4 10 15 34 10 45 -10z"/>
<path d="M2979 3695 c-71 -23 -139 -90 -179 -177 -30 -63 -34 -83 -35 -153 0
-70 3 -86 28 -128 66 -112 235 -159 354 -98 53 26 110 91 141 160 30 66 41
190 23 259 -15 55 -60 106 -113 127 -59 23 -163 28 -219 10z m215 -44 c28 -12
51 -32 67 -57 21 -34 24 -51 24 -134 0 -81 -4 -103 -26 -150 -66 -140 -171
-194 -305 -155 -74 21 -136 80 -154 145 -37 132 62 325 187 364 59 19 148 14
207 -13z"/>
<path d="M2995 3598 c-99 -54 -162 -213 -120 -302 34 -72 151 -110 223 -72 75
39 122 127 122 231 0 84 -14 114 -60 137 -40 20 -134 24 -165 6z m148 -29 c56
-25 65 -142 19 -230 -56 -108 -156 -132 -239 -56 -62 56 -20 218 71 277 35 22
110 27 149 9z"/>
<path d="M492 3684 c-24 -16 -95 -118 -156 -223 -20 -35 -46 -71 -57 -80 -11
-9 -21 -30 -23 -48 -3 -17 -14 -53 -25 -78 -26 -59 -26 -90 -1 -115 43 -43 86
-17 126 74 l28 64 71 14 72 14 11 -55 c23 -107 73 -153 128 -116 31 20 30 38
-9 188 -14 54 -36 151 -48 215 -18 88 -29 123 -46 140 -26 26 -41 27 -71 6z
m58 -36 c5 -13 21 -81 35 -151 15 -70 35 -160 46 -200 32 -114 34 -133 12
-141 -28 -11 -59 33 -76 109 -9 37 -18 69 -20 72 -3 3 -45 -3 -93 -14 l-88
-18 -38 -78 c-39 -80 -58 -93 -81 -55 -8 12 -4 32 16 80 15 34 27 73 27 84 0
12 6 24 13 27 7 2 37 45 66 93 79 131 140 214 157 214 8 0 19 -10 24 -22z"/>
<path d="M467 3488 c-19 -30 -39 -64 -46 -76 -14 -26 -7 -27 67 -11 l49 10
-14 62 c-8 34 -16 63 -18 65 -2 2 -19 -20 -38 -50z m33 -49 c0 -5 -7 -9 -15
-9 -9 0 -12 6 -9 15 6 15 24 11 24 -6z"/>
<path d="M2532 3684 c-24 -17 -72 -85 -147 -208 -26 -44 -56 -87 -67 -95 -10
-9 -20 -30 -22 -48 -3 -17 -14 -53 -25 -78 -26 -59 -26 -90 -1 -115 43 -43 86
-17 126 74 l28 64 71 14 72 14 11 -55 c22 -106 73 -152 127 -117 30 20 32 48
6 131 -10 33 -33 134 -52 223 -41 204 -64 240 -127 196z m58 -36 c5 -13 21
-81 35 -151 15 -70 35 -160 46 -200 32 -113 34 -133 13 -141 -10 -4 -24 0 -36
10 -19 18 -48 102 -48 141 0 34 -15 36 -110 16 l-84 -18 -38 -78 c-39 -80 -58
-93 -81 -55 -8 12 -4 32 16 80 15 34 27 73 27 86 0 12 4 22 10 22 10 0 16 9
113 165 58 92 100 145 118 145 5 0 14 -10 19 -22z"/>
<path d="M2518 3503 c-69 -110 -70 -113 -54 -113 8 0 37 5 64 11 l49 10 -14
62 c-8 34 -16 63 -18 65 -2 2 -14 -13 -27 -35z m22 -64 c0 -5 -7 -9 -15 -9 -9
0 -12 6 -9 15 6 15 24 11 24 -6z"/>
<path d="M437 2590 c-95 -24 -182 -100 -211 -187 -21 -60 -20 -147 1 -208 17
-53 91 -133 155 -172 50 -29 130 -37 196 -20 50 13 59 13 118 -6 80 -26 87
-21 72 59 -10 57 -9 65 13 110 50 103 33 240 -39 325 -65 75 -210 122 -305 99z
m155 -42 c22 -6 62 -31 88 -55 92 -83 115 -214 56 -320 -22 -38 -26 -54 -20
-90 7 -48 5 -49 -52 -30 -32 12 -44 12 -69 1 -50 -22 -143 -17 -201 10 -131
61 -190 227 -125 354 25 48 103 119 145 131 45 13 133 13 178 -1z"/>
<path d="M402 2377 c-36 -38 -28 -66 36 -130 32 -31 62 -57 68 -57 13 0 98 88
113 117 15 30 -1 70 -35 85 -21 10 -31 9 -54 -4 -23 -13 -31 -13 -51 -2 -35
19 -53 17 -77 -9z"/>
<path d="M2445 2510 c-121 -42 -258 -120 -351 -202 l-35 -31 -147 -1 -147 -1
-80 57 c-191 137 -385 199 -475 153 -79 -41 -143 -303 -120 -488 12 -100 49
-235 85 -308 22 -46 23 -58 16 -112 -6 -46 -14 -66 -33 -82 -48 -41 -52 -61
-23 -112 23 -41 24 -48 10 -63 -22 -25 -18 -51 16 -104 38 -56 100 -109 162
-136 26 -12 47 -23 47 -26 0 -2 -11 -26 -24 -52 -13 -26 -29 -65 -36 -86 l-13
-40 -18 40 c-10 21 -50 108 -89 193 -86 190 -91 198 -143 222 -38 17 -68 19
-347 18 -168 0 -375 -4 -461 -7 -188 -8 -199 -14 -199 -98 0 -46 16 -88 136
-350 l135 -297 -17 -32 c-9 -18 -15 -43 -12 -58 6 -33 -4 -37 -98 -37 -43 0
-74 -4 -74 -10 0 -5 3 -10 8 -10 4 0 45 -4 92 -8 105 -9 3028 -9 3090 0 25 3
60 6 78 7 17 1 32 6 32 11 0 6 -38 10 -94 10 -52 0 -97 4 -100 9 -3 4 6 23 19
41 46 63 58 111 52 213 -3 50 -11 109 -19 131 l-14 39 91 91 c167 166 257 332
300 556 33 165 3 321 -71 379 -36 28 -114 29 -159 1 -51 -31 -67 -77 -76 -218
-4 -68 -13 -148 -19 -178 -22 -105 -110 -308 -165 -378 -14 -18 -17 -16 -70
33 -31 28 -97 78 -146 112 -118 81 -169 131 -169 167 0 20 -12 40 -41 67 -38
38 -69 91 -69 121 0 7 13 42 29 76 105 230 124 459 54 669 -34 105 -63 132
-146 136 -49 3 -81 -3 -152 -27z m267 -164 c32 -102 32 -296 0 -414 -24 -88
-59 -172 -72 -172 -12 0 -24 85 -26 185 -1 50 -3 104 -4 120 -1 17 2 65 6 107
8 91 -1 110 -47 101 -22 -4 -29 -2 -29 10 0 9 5 19 10 22 6 3 10 11 10 16 0 6
-5 7 -11 3 -8 -5 -8 -1 0 14 6 12 17 24 24 28 8 5 7 2 -2 -9 -8 -10 -11 -20
-9 -23 9 -8 48 47 41 59 -3 6 -1 7 5 3 7 -4 12 -2 12 4 0 13 40 29 58 23 6 -3
22 -37 34 -77z m-1487 44 c-3 -5 2 -10 11 -10 23 0 94 -75 127 -134 29 -51 31
-49 -33 -30 -11 3 -20 10 -20 15 0 5 -9 9 -20 9 -37 0 -51 -78 -29 -164 9 -36
8 -49 -6 -76 -13 -26 -16 -47 -10 -95 4 -44 2 -73 -9 -101 -8 -21 -17 -48 -19
-59 -11 -54 -74 163 -83 289 -10 122 24 303 64 349 16 18 37 24 27 7z m1295
-109 c-9 -18 -8 -21 12 -22 18 0 15 -3 -12 -13 -19 -7 -36 -11 -38 -10 -1 1 8
17 20 37 25 37 37 43 18 8z m-605 -51 c4 -6 -7 -10 -26 -10 -87 0 -276 -71
-331 -124 -16 -15 -28 -37 -28 -49 -1 -63 -101 -196 -165 -217 -26 -8 -37 -21
-53 -58 -30 -71 -62 -206 -62 -264 0 -20 -10 -40 -31 -60 -27 -28 -29 -34 -19
-56 10 -23 9 -24 -5 -12 -38 31 -38 49 -3 88 31 34 36 49 52 147 60 370 287
586 653 624 6 0 15 -3 18 -9z m115 -10 c0 -5 -7 -10 -15 -10 -8 0 -15 5 -15
10 0 6 7 10 15 10 8 0 15 -4 15 -10z m-753 -127 c-2 -21 -4 -6 -4 32 0 39 2
55 4 38 2 -18 2 -50 0 -70z m18 -52 c3 -5 2 -12 -3 -15 -5 -3 -9 1 -9 9 0 17
3 19 12 6z m2165 -130 c0 -5 -6 -14 -14 -20 -19 -16 -33 -85 -41 -192 -8 -119
-48 -306 -82 -381 -36 -80 -133 -228 -150 -228 -19 0 -17 4 21 57 101 142 176
388 176 578 0 86 14 140 45 171 24 24 45 31 45 15z m-1284 -174 c35 -31 27
-54 -23 -63 -21 -4 -50 -14 -65 -22 -55 -32 -64 29 -12 81 33 33 65 34 100 4z
m-586 -17 c22 -22 26 -50 9 -67 -15 -15 -99 26 -99 49 0 37 59 49 90 18z m8
-203 c5 -27 -17 -50 -34 -36 -15 12 -19 41 -7 53 12 12 38 1 41 -17z m460 -6
c4 -28 -17 -45 -35 -29 -14 11 -17 40 -6 52 14 14 38 0 41 -23z m-331 -153
c13 -12 23 -29 23 -39 0 -22 -37 -49 -65 -49 -11 0 -31 7 -43 16 -29 20 -29 7
3 -77 34 -89 69 -121 138 -127 72 -6 120 17 152 73 14 23 25 50 25 61 0 10 7
28 15 38 27 35 19 45 -22 30 -57 -20 -100 -17 -125 8 -21 21 -21 22 -3 32 10
6 29 22 42 36 22 22 26 23 56 11 18 -8 72 -17 121 -22 103 -9 213 -55 265
-110 44 -47 100 -131 95 -144 -13 -33 -179 -111 -312 -147 -94 -25 -297 -30
-382 -10 -75 19 -226 93 -274 135 l-40 34 19 49 c25 66 114 155 180 179 28 10
59 25 70 32 27 18 35 17 62 -9z m-677 -85 c22 -20 67 -110 161 -318 72 -159
137 -305 144 -322 l14 -33 -507 0 -507 0 -52 113 c-199 432 -235 515 -235 534
-1 54 -13 53 488 53 l464 0 30 -27z m446 -293 c80 -47 194 -86 281 -95 l60 -7
-49 -49 c-26 -26 -48 -53 -48 -60 0 -6 -17 3 -37 21 -46 40 -132 82 -155 74
-10 -3 -18 0 -18 6 0 7 9 14 20 17 32 8 23 27 -22 50 -47 23 -127 83 -110 83
5 0 41 -18 78 -40z m1356 12 c-29 -15 -71 -45 -93 -67 -42 -41 -94 -129 -84
-144 12 -20 155 -70 230 -82 102 -15 183 -2 277 44 65 32 67 33 72 13 18 -67
-10 -170 -61 -227 l-35 -39 -265 0 -265 0 6 25 c4 14 2 25 -4 25 -5 0 -17 -11
-26 -25 -10 -15 -26 -25 -40 -25 -19 0 -24 5 -24 25 0 14 -4 25 -10 25 -5 0
-17 -11 -26 -25 -21 -33 -58 -35 -48 -2 15 50 75 113 140 146 22 12 74 25 115
29 69 8 72 9 46 20 -16 7 -51 12 -78 12 l-51 0 7 33 c22 109 115 224 204 251
69 22 72 18 13 -12z m-1010 -184 c-7 -7 -12 -22 -12 -34 0 -17 11 -26 48 -41
44 -16 105 -20 237 -12 17 1 72 -3 123 -10 113 -15 258 -1 311 30 18 11 36 17
39 14 10 -10 -31 -45 -83 -71 -83 -40 -150 -54 -305 -64 -80 -5 -176 -13 -214
-16 l-69 -7 6 32 c8 40 -9 41 -31 1 -25 -45 -57 -38 -56 13 1 20 -2 37 -6 37
-11 0 -40 -47 -40 -65 0 -10 -7 -15 -17 -13 -13 2 -17 15 -18 58 -1 30 3 64 8
75 19 40 58 85 75 85 12 0 13 -3 4 -12z m-449 -36 c29 -22 67 -45 84 -52 48
-18 142 -9 180 18 l32 22 15 -22 c18 -26 20 -65 6 -102 -13 -34 -47 -35 -56
-1 -3 14 -10 25 -15 25 -5 0 -11 -11 -15 -25 -5 -20 -12 -25 -38 -25 -25 0
-35 6 -44 25 -6 14 -16 25 -22 25 -5 0 -10 -11 -10 -25 0 -23 -4 -25 -44 -25
-24 0 -48 6 -53 13 -8 10 -62 129 -80 175 -8 20 5 14 60 -26z m1054 -180 c-9
-10 -23 -36 -30 -58 l-14 -39 -121 -3 -122 -3 0 25 c0 13 -2 31 -5 39 -5 11
12 15 82 21 48 3 113 12 143 20 80 20 86 20 67 -2z m-1087 -67 l0 -25 -514 0
c-348 0 -517 3 -521 10 -4 6 -4 17 -1 25 5 13 79 15 521 15 l515 0 0 -25z
m752 13 c14 -37 5 -38 -353 -38 l-349 0 0 25 0 25 349 0 c270 0 350 -3 353
-12z"/>
<path d="M1266 2350 c6 -8 25 -34 43 -58 19 -24 30 -49 27 -57 -3 -9 0 -15 9
-15 8 0 15 4 15 8 0 14 -58 97 -82 118 -13 10 -18 12 -12 4z"/>
<path d="M630 1010 c-25 -25 -25 -32 -2 -60 25 -31 69 -21 78 17 5 20 2 31
-16 45 -28 23 -35 23 -60 -2z"/>
<path d="M550 945 c-26 -31 13 -82 44 -56 19 16 21 42 4 59 -16 16 -33 15 -48
-3z"/>
<path d="M737 953 c-13 -12 -7 -51 9 -57 28 -11 43 -6 49 14 11 34 -34 67 -58
43z"/>
<path d="M616 869 c-30 -35 -31 -39 -13 -62 29 -40 159 -25 165 19 4 31 -50
74 -93 74 -25 0 -40 -8 -59 -31z"/>
</g>
</svg>
