<?xml version="1.0" standalone="no"?>
<!DOCTYPE svg PUBLIC "-//W3C//DTD SVG 20010904//EN"
 "http://www.w3.org/TR/2001/REC-SVG-20010904/DTD/svg10.dtd">
<svg version="1.0" xmlns="http://www.w3.org/2000/svg"
 width="330.000000pt" height="303.000000pt" viewBox="0 0 330.000000 303.000000"
 preserveAspectRatio="xMidYMid meet">

<g transform="translate(0.000000,303.000000) scale(0.100000,-0.100000)"
fill="#000000" stroke="none">
<path d="M972 2857 c-45 -54 -131 -443 -132 -597 0 -37 -7 -55 -39 -98 -22
-28 -45 -69 -52 -89 -17 -54 -48 -114 -71 -140 l-21 -22 26 -43 c14 -24 34
-52 46 -62 27 -24 27 -34 -1 -38 -44 -6 -33 -41 31 -109 41 -42 59 -69 56 -80
-9 -26 -78 -79 -210 -159 -66 -41 -142 -90 -170 -110 -53 -40 -164 -152 -183
-185 -14 -27 -28 -12 -44 48 -11 44 -11 52 7 85 12 21 62 69 123 117 156 122
206 211 181 323 -32 145 -145 217 -221 142 -26 -27 -29 -35 -23 -68 3 -20 17
-61 31 -91 23 -50 23 -55 8 -87 -17 -36 -77 -94 -170 -165 -80 -61 -109 -118
-108 -210 0 -54 6 -79 32 -130 17 -35 48 -81 68 -102 35 -36 36 -38 26 -80
-44 -173 -12 -353 87 -495 46 -65 71 -86 152 -128 l54 -29 430 -6 c237 -4 798
-7 1248 -8 804 -1 817 -1 837 19 14 14 20 33 20 66 0 29 27 129 74 277 238
745 237 743 227 771 -6 14 -22 31 -36 36 -29 11 -911 14 -964 4 -65 -13 -80
-42 -165 -313 -44 -139 -83 -254 -87 -257 -4 -2 -10 10 -14 27 -4 17 -20 46
-37 65 -28 32 -34 34 -92 34 -33 0 -88 -7 -121 -14 -33 -8 -61 -13 -63 -12 -1
2 6 19 17 37 33 58 52 140 57 244 l4 100 47 9 c163 29 237 78 191 124 -9 9 -9
12 3 12 9 0 33 15 54 33 37 32 38 33 25 69 -11 31 -11 52 5 144 10 60 20 150
21 200 2 64 10 117 28 176 58 188 99 454 82 523 -7 27 -8 28 -66 22 -33 -3
-133 -30 -225 -62 -159 -54 -168 -56 -198 -42 -93 43 -226 69 -330 66 l-72 -2
-96 87 c-175 159 -258 209 -287 173z m133 -90 c28 -21 94 -79 147 -128 60 -56
102 -87 111 -83 10 3 17 -4 21 -23 10 -41 48 -93 68 -93 17 0 38 52 38 98 0
17 6 22 28 22 40 0 49 -13 67 -99 25 -117 39 -155 56 -159 25 -5 62 91 63 159
l1 57 37 -19 c37 -19 40 -24 64 -122 12 -52 32 -42 44 23 l7 35 59 -61 c98
-100 184 -308 184 -444 0 -74 -6 -90 -35 -90 -33 0 -55 -10 -55 -25 0 -13 40
-50 62 -57 7 -3 8 -17 4 -42 -7 -36 -9 -38 -37 -32 -32 6 -69 -7 -69 -25 0 -5
21 -23 48 -40 63 -40 72 -71 27 -99 -18 -11 -49 -20 -70 -20 l-37 0 32 -40 32
-40 -60 0 -59 0 -7 41 c-8 51 -37 108 -67 134 l-24 20 21 -25 c50 -59 70 -129
54 -188 -10 -39 -13 -41 -68 -54 -34 -8 -114 -13 -197 -12 -163 1 -331 34
-425 82 -54 29 -55 30 -58 77 -8 117 22 146 248 241 46 20 120 79 120 96 0 6
-17 -7 -38 -29 -27 -28 -65 -50 -136 -78 -106 -43 -175 -94 -196 -145 -14 -34
-18 -35 -57 -15 -15 8 -72 34 -125 59 -121 55 -202 109 -173 114 24 5 55 31
55 47 0 7 -10 16 -22 22 -19 8 -11 11 46 17 80 8 136 29 136 50 0 24 -39 44
-133 68 -95 25 -92 20 -60 96 12 30 18 34 41 29 15 -4 59 -13 97 -21 84 -19
181 -21 191 -4 11 17 -57 72 -151 120 l-85 43 6 55 c19 197 70 452 109 543
l16 39 27 -18 c15 -10 50 -35 77 -57z m1108 -170 c12 -32 -15 -218 -60 -402
l-26 -110 -15 35 c-24 55 -19 96 26 223 78 220 49 248 -138 134 l-74 -45 -38
31 c-27 21 -35 33 -26 38 38 21 303 105 339 108 4 1 9 -5 12 -12z m-109 -218
c-20 -63 -39 -118 -42 -123 -3 -5 -13 7 -23 27 -18 35 -18 36 2 81 22 50 18
70 -12 61 -32 -11 -21 3 22 27 23 13 51 28 63 35 11 7 22 11 24 9 1 -2 -14
-55 -34 -117z m-114 26 c-11 -13 -9 -20 9 -38 11 -13 21 -27 21 -32 0 -5 -13
6 -29 25 -26 31 -27 36 -12 47 22 17 26 16 11 -2z m-963 -992 c103 -55 291
-123 338 -123 23 0 25 -3 16 -14 -10 -12 -8 -13 8 -9 11 3 43 0 70 -7 96 -23
137 -109 97 -205 -8 -19 -13 -35 -10 -35 12 0 34 73 34 112 0 44 -17 78 -55
110 -19 17 -16 17 83 18 57 0 113 5 124 11 21 11 21 10 15 -68 -8 -109 -9
-109 -77 -117 -97 -11 -102 -56 -8 -72 33 -6 36 -9 27 -26 -6 -11 -26 -37 -45
-58 -41 -45 -42 -52 -9 -44 22 5 25 3 25 -19 0 -35 10 -57 26 -57 16 0 44 50
44 78 0 17 13 22 89 36 130 24 158 6 182 -117 13 -72 -15 -183 -34 -134 -3 6
-6 -4 -6 -24 -1 -37 -13 -49 -51 -49 -22 0 -34 31 -25 63 6 21 6 21 -14 -3
l-20 -25 -15 37 c-26 61 -21 93 18 117 37 23 71 26 113 10 23 -8 26 -8 15 3
-7 7 -43 13 -89 15 -82 2 -195 -17 -388 -68 -60 -16 -113 -29 -117 -29 -4 0
-7 33 -6 73 1 97 -11 214 -28 257 -8 19 -18 55 -23 80 -6 29 -9 36 -10 19 -1
-14 6 -48 14 -75 15 -51 20 -161 7 -180 -4 -6 -37 -13 -73 -16 -36 -3 -76 -11
-88 -18 -21 -10 -22 -14 -9 -27 9 -8 48 -20 89 -26 l74 -12 -3 -33 -3 -34 -47
7 c-58 8 -95 -12 -73 -39 8 -9 30 -19 51 -22 61 -10 62 -11 44 -107 -13 -70
-20 -89 -40 -102 -13 -8 -24 -22 -24 -30 0 -8 -9 -15 -19 -15 -48 0 -81 -41
-81 -100 0 -34 -14 -38 -42 -13 -29 26 -22 50 20 72 20 11 29 20 20 21 -9 0
-20 9 -23 20 -3 11 -10 20 -15 20 -4 0 -10 17 -13 38 -7 59 -36 251 -48 324
-7 36 -24 88 -38 115 l-26 48 -61 1 c-63 0 -110 14 -156 46 -38 26 -35 16 13
-44 22 -28 47 -64 55 -79 l14 -28 -67 -3 c-52 -2 -68 -6 -68 -18 0 -18 53 -45
122 -61 51 -12 51 -12 55 -55 l3 -42 -86 5 c-90 6 -159 -1 -159 -17 0 -14 67
-45 143 -65 37 -10 67 -22 67 -26 0 -5 -12 -16 -27 -26 -20 -13 -42 -17 -84
-15 -65 4 -82 -9 -43 -35 l26 -17 -38 -13 c-22 -8 -69 -21 -106 -30 -38 -9
-68 -20 -68 -24 0 -4 57 -7 128 -7 154 1 258 -20 305 -61 20 -19 28 -33 24
-44 -9 -25 -46 -20 -69 8 -11 14 -27 25 -35 25 -14 0 -14 -2 0 -18 10 -10 17
-22 17 -25 0 -4 -63 -7 -140 -7 -116 0 -140 3 -148 16 -5 9 -38 26 -74 38
-114 38 -202 130 -249 261 -12 33 -24 67 -27 75 -13 37 -12 196 3 287 13 81
22 107 51 149 61 89 62 90 128 50 67 -41 113 -53 129 -36 9 9 -3 26 -52 72
-35 33 -59 63 -55 67 5 4 22 17 37 29 l28 21 55 -45 c71 -57 188 -116 222
-112 21 2 27 8 27 27 0 19 -20 40 -90 93 -49 38 -98 74 -108 81 -16 11 -14 14
26 36 l43 24 41 -29 c65 -48 119 -69 146 -57 21 10 19 13 -45 73 l-67 63 40
36 41 36 44 -40 c24 -22 87 -64 141 -92z m-658 35 c-29 -27 -59 -48 -66 -48
-7 0 -22 9 -33 20 l-21 21 43 48 43 48 43 -21 43 -21 -52 -47z m2872 -68 c10
-6 19 -19 19 -28 0 -19 -283 -919 -292 -927 -3 -3 -234 -4 -515 -3 l-509 3
145 457 c82 256 154 465 165 477 10 11 28 22 40 24 49 10 928 7 947 -3z
m-3046 -82 c-14 -16 -25 -34 -25 -39 0 -11 -21 -11 -39 0 -11 7 -11 15 -2 42
6 18 18 44 27 57 l15 23 25 -26 24 -27 -25 -30z m4 -250 l-11 -21 -14 24 c-14
24 -44 89 -44 94 0 2 8 5 18 7 26 6 67 -75 51 -104z m1605 -383 c23 -60 66
-95 116 -95 l39 0 -18 -52 -18 -53 -302 -3 c-285 -2 -302 -1 -297 15 2 10 7
34 11 53 13 71 12 70 68 70 63 0 162 26 277 74 47 19 90 35 96 35 6 1 19 -19
28 -44z m-387 -241 c-3 -3 -12 -4 -19 -1 -8 3 -5 6 6 6 11 1 17 -2 13 -5z
m226 -1 c-7 -2 -21 -2 -30 0 -10 3 -4 5 12 5 17 0 24 -2 18 -5z m261 -65 c16
-22 8 -53 -18 -70 -6 -4 -161 -8 -343 -8 -320 0 -334 1 -353 20 -24 24 -25 38
-3 62 15 17 40 18 359 18 340 0 343 0 358 -22z m1056 -16 c0 -21 -5 -43 -12
-50 -9 -9 -135 -12 -508 -12 l-495 0 0 50 0 50 508 0 507 0 0 -38z"/>
<path d="M1007 2742 c-9 -9 -21 -37 -26 -62 -14 -61 -27 -390 -15 -390 5 0 21
15 36 34 15 19 74 69 132 111 l104 76 -44 64 c-52 74 -129 162 -154 175 -13 7
-22 5 -33 -8z m93 -126 c0 -5 -7 -3 -15 4 -13 11 -15 2 -13 -71 l2 -84 5 70
c7 82 19 88 62 31 22 -30 26 -42 18 -53 -6 -7 -16 -13 -21 -13 -6 0 -5 7 2 15
10 12 10 19 2 27 -9 9 -12 7 -13 -10 -1 -12 -2 -26 -3 -31 -1 -9 -42 -46 -100
-91 -19 -15 -19 -12 -14 120 3 74 9 144 14 154 7 17 11 15 41 -20 18 -21 33
-43 33 -48z"/>
<path d="M1285 1976 c-32 -32 -40 -69 -26 -117 20 -67 80 -77 114 -20 27 46
22 97 -12 132 -36 35 -45 36 -76 5z m64 -100 c18 -22 -4 -62 -25 -45 -21 17
-17 59 6 59 4 0 13 -6 19 -14z"/>
<path d="M1799 1872 c-42 -38 -51 -104 -19 -144 28 -36 45 -35 86 6 29 29 34
41 34 80 0 33 -6 52 -20 66 -27 27 -44 25 -81 -8z m48 -108 c7 -19 -20 -49
-36 -40 -12 8 -15 39 -4 49 12 12 33 7 40 -9z"/>
<path d="M1504 1854 c-10 -8 -13 -12 -5 -8 8 4 28 11 45 15 29 6 29 7 5 8 -14
1 -34 -6 -45 -15z"/>
<path d="M1600 1853 c32 -12 70 -58 85 -103 9 -26 25 -56 37 -66 l22 -19 -22
32 c-12 17 -22 36 -22 43 0 39 -68 120 -100 119 -13 -1 -13 -1 0 -6z"/>
<path d="M1514 1737 c-5 -14 21 -77 32 -77 15 0 62 31 67 44 7 18 -12 30 -61
41 -24 5 -33 3 -38 -8z"/>
<path d="M1520 1600 c-8 -5 -25 -10 -37 -10 -32 0 -29 -17 7 -35 30 -16 90
-21 90 -7 -1 4 -11 19 -23 34 -16 20 -26 25 -37 18z"/>
<path d="M2055 2440 c-3 -5 -1 -10 4 -10 6 0 11 5 11 10 0 6 -2 10 -4 10 -3 0
-8 -4 -11 -10z"/>
<path d="M1322 1200 c0 -14 2 -19 5 -12 2 6 2 18 0 25 -3 6 -5 1 -5 -13z"/>
<path d="M1516 978 l-18 -33 21 25 c18 22 26 40 18 40 -1 0 -11 -15 -21 -32z"/>
<path d="M1439 878 c-24 -29 -36 -47 -26 -39 20 16 81 91 74 91 -2 0 -24 -24
-48 -52z"/>
<path d="M1220 325 c0 -9 9 -15 25 -15 16 0 25 6 25 15 0 9 -9 15 -25 15 -16
0 -25 -6 -25 -15z"/>
<path d="M1292 328 c7 -20 48 -23 48 -4 0 11 -9 16 -26 16 -16 0 -24 -5 -22
-12z"/>
<path d="M1570 325 c0 -13 19 -15 132 -13 94 2 133 7 136 16 3 9 -28 12 -132
12 -115 0 -136 -2 -136 -15z"/>
</g>
</svg>
