<?xml version="1.0" standalone="no"?>
<!DOCTYPE svg PUBLIC "-//W3C//DTD SVG 20010904//EN"
 "http://www.w3.org/TR/2001/REC-SVG-20010904/DTD/svg10.dtd">
<svg version="1.0" xmlns="http://www.w3.org/2000/svg"
 width="283.000000pt" height="314.000000pt" viewBox="0 0 283.000000 314.000000"
 preserveAspectRatio="xMidYMid meet">

<g transform="translate(0.000000,314.000000) scale(0.100000,-0.100000)"
fill="#000000" stroke="none">
<path d="M920 2467 c-36 -18 -50 -53 -50 -127 0 -77 24 -175 70 -284 25 -59
31 -83 23 -95 -11 -16 -19 -17 -63 -6 -25 6 -25 6 4 -18 29 -25 29 -25 10 -51
-14 -19 -28 -26 -54 -26 l-35 0 22 -18 c21 -15 22 -20 11 -54 -9 -31 -17 -39
-44 -44 -95 -18 -164 -104 -184 -229 -16 -101 0 -183 46 -236 11 -13 14 -47
12 -155 l-3 -139 -257 -3 -258 -2 0 -31 c0 -24 -3 -29 -12 -22 -29 23 -67 24
-88 3 -25 -25 -26 -72 0 -127 25 -56 70 -83 136 -83 38 0 55 -5 69 -20 10 -11
26 -22 36 -25 29 -10 14 -22 -19 -17 -44 6 -74 -14 -70 -46 l3 -27 235 -6
c220 -6 1304 -13 1598 -10 l133 1 64 65 c79 79 106 131 113 211 4 61 5 61 47
82 83 40 122 120 131 266 5 69 13 107 34 156 41 92 43 105 25 139 -35 68 -148
63 -206 -9 -48 -60 -53 -131 -18 -282 14 -64 4 -118 -31 -160 -19 -21 -21 -22
-31 -5 -6 10 -33 46 -60 80 -27 34 -65 93 -83 130 l-35 68 22 37 c18 31 22 52
22 127 -1 108 -23 178 -76 239 -45 52 -55 86 -28 93 27 7 24 23 -5 23 -16 0
-32 11 -46 31 -22 29 -22 31 -4 44 11 8 22 15 27 15 4 0 7 4 7 10 0 6 -10 6
-27 -1 -50 -19 -56 -4 -24 53 17 29 44 96 62 148 26 78 32 112 33 187 1 84 -1
93 -24 118 -22 23 -31 26 -72 23 -50 -5 -171 -59 -243 -108 l-44 -30 -63 22
c-81 28 -302 32 -357 7 -33 -16 -33 -16 -125 38 -50 29 -120 63 -155 73 -74
23 -69 23 -101 7z m155 -61 c39 -18 90 -45 114 -60 l43 -28 -30 -18 c-16 -10
-33 -23 -36 -29 -4 -7 -37 15 -81 53 -75 66 -122 96 -150 96 -18 0 -20 16 -2
24 21 9 70 -3 142 -38z m979 15 c3 -5 -13 -16 -37 -25 -23 -9 -75 -45 -116
-80 l-74 -64 -36 25 c-19 13 -37 26 -39 27 -5 6 141 89 188 107 49 19 106 24
114 10z m-1099 -82 c37 -35 56 -65 105 -169 5 -9 -7 -43 -27 -85 -33 -64 -36
-68 -49 -50 -17 24 -51 112 -70 184 -14 54 -19 161 -8 161 3 0 25 -18 49 -41z
m1125 -17 c0 -68 -34 -193 -76 -282 l-36 -75 -26 55 c-32 69 -31 123 2 196 23
50 107 150 129 153 4 1 7 -21 7 -47z m-426 -12 c102 -32 145 -80 234 -260 43
-89 67 -149 61 -154 -16 -17 -10 -26 16 -26 33 0 53 -36 25 -45 -29 -9 -25
-22 10 -30 54 -12 39 -21 -28 -17 -37 2 -86 -1 -109 -7 -52 -14 -94 -64 -96
-115 l-2 -36 -152 0 c-84 0 -153 2 -153 5 0 15 34 55 47 55 20 0 73 55 73 75
0 13 -7 11 -34 -13 -43 -38 -66 -45 -99 -33 -37 14 -45 53 -18 83 30 31 23 52
-18 56 -40 4 -81 -5 -81 -17 0 -5 12 -23 26 -40 30 -36 22 -63 -25 -79 -24 -9
-35 -6 -65 14 -20 14 -36 29 -36 35 0 6 -4 7 -10 4 -16 -10 18 -65 48 -77 26
-12 61 -46 62 -60 0 -5 -62 -8 -138 -8 l-138 0 -19 43 c-22 46 -80 87 -127 87
-32 0 -31 -2 -17 38 9 26 15 31 34 26 28 -7 42 11 19 24 -24 13 -1 52 31 52
27 0 32 9 14 27 -7 7 4 33 39 89 28 44 70 110 94 148 49 78 123 140 201 168
70 25 232 19 331 -12z m-534 -81 c0 -5 -12 -21 -26 -36 l-25 -28 22 33 23 32
-35 38 -34 37 38 -34 c20 -19 37 -38 37 -42z m774 17 c-3 -8 -12 -17 -21 -20
-10 -4 -13 -13 -8 -24 5 -13 4 -14 -6 -5 -10 10 -8 18 11 38 27 29 32 31 24
11z m98 -535 c38 -34 44 -87 13 -121 -23 -26 -45 -26 -45 0 0 11 -7 20 -15 20
-10 0 -15 -10 -15 -30 0 -25 -4 -30 -25 -30 -21 0 -25 5 -25 31 0 24 -4 30
-17 27 -10 -2 -19 -9 -19 -16 -3 -26 -5 -26 -24 -3 -32 37 -27 94 11 125 45
38 117 37 161 -3z m73 3 c31 -20 66 -76 70 -112 2 -15 8 -53 13 -85 5 -32 5
-74 2 -95 -7 -31 -8 -26 -9 31 -1 74 -17 114 -56 145 -18 14 -25 29 -25 55 0
19 -7 40 -15 47 -15 12 -20 30 -10 30 3 0 17 -7 30 -16z m-1093 -20 c49 -25
58 -107 14 -143 -14 -12 -16 -11 -16 8 0 31 -28 26 -32 -6 -2 -22 -9 -29 -30
-31 -24 -3 -27 1 -30 30 -4 41 -21 43 -28 3 l-5 -30 -28 27 c-36 36 -38 95 -3
127 43 40 97 46 158 15z m-192 -3 c-5 -11 -15 -23 -20 -26 -6 -3 -10 -16 -10
-29 0 -13 -10 -31 -21 -42 -36 -31 -49 -78 -50 -171 0 -59 -3 -81 -9 -68 -13
31 -11 123 5 200 12 61 20 75 59 113 49 46 62 53 46 23z m1008 -113 c7 -7 12
-16 12 -20 0 -4 -171 -8 -380 -8 -310 0 -380 2 -380 13 0 8 3 17 7 20 3 4 169
7 368 7 267 0 364 -3 373 -12z m291 -24 c20 -26 21 -37 21 -410 l0 -383 -24
-28 -24 -28 -642 0 -642 0 -24 28 -24 28 0 382 c0 330 2 386 16 405 8 12 19
22 24 22 17 0 20 -37 5 -68 -14 -26 -15 -80 -13 -371 l3 -339 24 -26 24 -26
603 0 603 0 28 24 28 24 0 355 0 356 -27 28 c-22 23 -25 32 -16 41 18 18 35
14 57 -14z m-62 -33 c30 -19 33 -57 33 -379 0 -318 -1 -330 -21 -356 l-20 -26
-599 0 -599 0 -21 22 c-19 21 -20 33 -20 363 0 377 2 391 54 367 41 -18 162
-16 170 3 5 14 63 16 510 14 277 -1 508 -4 513 -8z m549 -35 l28 -23 -23 -59
c-13 -33 -30 -77 -38 -99 -9 -22 -19 -79 -23 -128 -9 -104 -39 -171 -89 -204
-19 -13 -40 -23 -46 -23 -20 0 -27 31 -11 49 26 29 56 105 56 145 0 21 -10 71
-21 110 -34 113 -15 194 56 237 41 25 78 24 111 -5z m-344 -371 c128 -157 151
-300 64 -401 -33 -38 -34 -38 -53 -21 -13 11 -36 17 -71 17 l-51 0 15 36 c12
29 14 80 12 269 l-3 234 19 -37 c10 -20 41 -64 68 -97z m-1622 -198 c0 -34 -4
-44 -22 -52 -18 -8 -24 -20 -26 -55 -4 -55 11 -69 70 -61 l43 6 3 47 c3 43 0
49 -22 60 -22 9 -26 18 -26 55 0 43 0 43 35 43 l35 0 0 -114 c0 -107 -1 -116
-22 -130 -12 -9 -39 -16 -59 -16 -23 0 -42 -7 -54 -20 -14 -16 -31 -20 -75
-20 -165 0 -265 89 -282 253 l-6 47 204 0 204 0 0 -43z m-442 -17 c12 -8 22
-21 22 -28 0 -8 -10 -5 -29 9 -35 26 -51 19 -51 -22 0 -41 48 -89 88 -89 17 0
32 -6 36 -15 8 -23 -52 -19 -92 5 -53 33 -80 121 -47 154 16 16 32 13 73 -14z
m20 -73 c15 -16 20 -27 13 -31 -22 -14 -71 30 -71 64 0 15 29 -1 58 -33z m462
14 c0 -5 -12 -11 -27 -13 -22 -2 -29 -10 -34 -33 -7 -30 -7 -30 -8 6 0 20 2
39 6 42 10 11 63 8 63 -2z m80 -131 c0 -5 -4 -10 -10 -10 -5 0 -10 5 -10 10 0
6 5 10 10 10 6 0 10 -4 10 -10z m550 -70 c27 -29 30 -30 124 -30 83 0 99 3
116 20 11 11 20 25 20 30 0 6 120 10 340 10 l340 0 0 -23 c0 -16 -9 -28 -25
-35 -19 -9 -231 -12 -788 -12 -811 0 -808 0 -815 48 l-3 22 331 0 332 0 28
-30z m220 20 c0 -6 -38 -10 -94 -10 -53 0 -98 4 -101 10 -4 6 30 10 94 10 61
0 101 -4 101 -10z m-940 -40 c0 -6 -57 -10 -150 -10 -93 0 -150 4 -150 10 0 6
57 10 150 10 93 0 150 -4 150 -10z"/>
<path d="M1110 2360 c0 -6 7 -13 15 -17 24 -9 27 1 5 15 -13 8 -20 8 -20 2z"/>
<path d="M1177 2319 c7 -7 15 -10 18 -7 3 3 -2 9 -12 12 -14 6 -15 5 -6 -5z"/>
<path d="M1830 2330 c-14 -11 -20 -20 -15 -19 13 0 50 28 44 33 -2 3 -15 -4
-29 -14z"/>
<path d="M1303 2289 c-39 -11 -47 -23 -39 -54 9 -37 34 -57 55 -45 17 9 51 76
51 100 0 12 -24 12 -67 -1z"/>
<path d="M1396 2252 c9 -69 25 -97 53 -97 26 0 55 44 67 101 6 30 5 30 -30 26
-19 -2 -49 1 -66 7 l-31 10 7 -47z"/>
<path d="M1544 2259 c17 -108 77 -119 107 -18 7 21 10 41 8 44 -3 2 -31 7 -64
11 l-58 7 7 -44z"/>
<path d="M1162 2003 c-18 -7 -42 -57 -42 -88 0 -36 50 -86 79 -78 54 14 70
105 26 148 -24 25 -37 28 -63 18z m52 -90 c4 -9 0 -23 -8 -32 -14 -13 -16 -13
-22 2 -7 20 1 47 15 47 5 0 12 -8 15 -17z"/>
<path d="M1630 1970 c-27 -27 -35 -65 -20 -101 34 -81 125 -45 122 48 -3 66
-59 96 -102 53z m38 -86 c-5 -28 -28 -29 -28 -1 0 13 3 27 7 31 10 10 25 -10
21 -30z"/>
<path d="M852 1251 c-17 -10 -55 -167 -47 -192 7 -22 42 -34 59 -20 9 7 16 7
24 -1 9 -9 18 -8 38 1 19 8 30 9 40 0 7 -6 23 -8 36 -3 13 4 44 6 69 5 63 -3
100 34 67 67 -8 8 -8 15 1 26 7 8 11 23 9 33 -1 10 1 24 5 31 13 19 -1 49 -26
56 -36 9 -115 7 -122 -4 -4 -7 -13 -6 -26 1 -22 11 -59 4 -59 -12 0 -6 -7 -3
-16 5 -17 18 -32 20 -52 7z m42 -80 c4 -28 10 -53 15 -56 5 -2 15 21 23 53 8
31 18 56 23 54 9 -2 33 -104 34 -146 1 -33 -10 -10 -23 46 l-12 53 -18 -52
c-10 -29 -21 -55 -26 -58 -4 -3 -14 18 -20 46 -14 56 -24 52 -36 -14 -3 -22
-10 -35 -14 -30 -7 7 9 106 25 151 9 25 22 3 29 -47z m226 49 c11 -7 2 -10
-32 -10 -45 0 -48 -2 -48 -26 0 -25 2 -26 40 -20 25 4 40 2 40 -4 0 -5 -11
-10 -24 -10 -40 0 -56 -11 -56 -36 0 -21 4 -24 41 -24 24 0 38 -4 34 -10 -9
-14 -68 -13 -83 2 -7 7 -12 40 -12 78 l0 67 43 1 c23 1 49 -3 57 -8z"/>
<path d="M1256 1228 c-60 -81 -85 -160 -55 -179 23 -14 36 -10 57 16 l20 25
15 -23 c14 -22 22 -23 95 -23 62 1 85 6 100 19 17 15 21 16 32 3 17 -21 70
-29 103 -17 32 13 67 65 67 104 0 15 5 27 10 27 6 0 10 -24 10 -54 0 -36 5
-60 16 -70 37 -38 64 -10 64 66 0 49 3 58 18 58 41 0 57 51 22 70 -12 6 -71 9
-151 7 -130 -3 -132 -4 -156 -31 -22 -26 -26 -27 -41 -13 -17 15 -87 47 -103
47 -4 0 -15 -7 -23 -16 -15 -14 -17 -14 -32 0 -23 24 -40 20 -68 -16z m54 -26
c0 -10 6 -41 14 -70 7 -29 9 -55 4 -58 -4 -3 -11 8 -14 25 -4 18 -13 31 -21
31 -23 0 -53 -20 -53 -35 0 -7 -5 -17 -12 -21 -21 -13 0 53 34 105 32 49 48
56 48 23z m169 -34 c31 -54 -15 -107 -81 -93 -27 6 -28 8 -28 74 0 37 3 70 6
74 11 11 89 -30 103 -55z m159 46 c41 -28 19 -125 -32 -138 -78 -19 -116 65
-57 125 33 33 56 36 89 13z m177 6 c4 -6 -7 -10 -24 -10 l-31 0 -1 -72 c-1
-85 -17 -67 -18 20 -1 45 -4 52 -20 52 -11 0 -23 5 -26 10 -4 6 16 10 54 10
33 0 63 -4 66 -10z"/>
<path d="M1282 1177 c-17 -20 -12 -40 6 -28 8 5 12 16 10 26 -3 17 -4 17 -16
2z"/>
<path d="M1390 1150 c0 -59 0 -60 28 -60 36 0 52 16 52 52 0 21 -8 33 -32 48
-18 11 -36 20 -40 20 -5 0 -8 -27 -8 -60z m50 -16 c0 -8 -4 -14 -10 -14 -5 0
-10 9 -10 21 0 11 5 17 10 14 6 -3 10 -13 10 -21z"/>
<path d="M1556 1188 c-31 -44 -15 -98 29 -98 34 0 57 32 53 77 -3 35 -6 38
-35 41 -23 2 -35 -3 -47 -20z m52 -35 c-4 -32 -38 -46 -38 -16 0 20 18 43 33
43 4 0 7 -12 5 -27z"/>
<path d="M1887 1246 c-30 -30 -78 -116 -83 -148 -8 -45 15 -66 51 -50 14 7 25
18 25 27 0 22 18 19 25 -4 8 -27 43 -37 63 -18 14 14 13 24 -1 98 -22 106 -43
131 -80 95z m58 -174 c-3 -3 -10 9 -16 27 -10 29 -15 32 -38 26 -14 -4 -27
-10 -29 -14 -1 -5 -10 -17 -18 -27 -31 -38 -5 36 33 95 l37 56 18 -79 c10 -44
16 -81 13 -84z"/>
<path d="M1891 1171 c-15 -26 -12 -31 10 -22 11 4 14 12 9 26 -7 19 -7 19 -19
-4z"/>
<path d="M2481 1188 c1 -55 5 -50 11 15 2 20 0 37 -4 37 -4 0 -7 -24 -7 -52z"/>
<path d="M2452 1040 c-18 -29 -15 -38 4 -12 9 13 14 25 12 27 -2 2 -9 -5 -16
-15z"/>
<path d="M2197 1047 c-19 -40 -22 -102 -6 -144 13 -35 55 -80 92 -99 24 -13
28 -13 33 1 19 48 -23 180 -79 249 l-23 29 -17 -36z"/>
<path d="M2455 770 c-4 -6 -23 -17 -43 -26 -50 -20 -80 -51 -91 -92 -20 -70
17 -92 156 -92 110 0 142 11 156 52 15 47 -17 97 -88 135 -65 34 -80 38 -90
23z m35 -34 c0 -8 -4 -17 -9 -20 -10 -7 -23 19 -14 28 11 11 23 6 23 -8z m-50
-21 c0 -7 7 -18 16 -23 9 -5 14 -18 12 -33 -3 -21 -7 -24 -38 -21 -19 2 -46
10 -58 19 -23 14 -23 15 -5 35 16 19 47 36 66 37 4 1 7 -6 7 -14z m120 -2 c25
-17 40 -33 40 -44 0 -8 -43 -25 -82 -33 -25 -6 -28 -3 -28 19 0 25 26 75 39
75 4 0 18 -8 31 -17z m-86 -96 c48 0 82 5 104 17 30 16 32 16 32 -2 0 -35 -21
-42 -128 -42 -111 0 -142 9 -142 41 0 19 1 19 32 3 20 -10 57 -16 102 -17z"/>
</g>
</svg>
